<svg version="1" xmlns="http://www.w3.org/2000/svg" width="2133.333" height="2133.333" viewBox="0 0 1600.000000 1600.000000"><path d="M858.5 101c-2.7.4-7.5 1.1-10.5 1.4-3 .4-6.6.9-8 1.1-1.4.2-4.5.6-7 1-2.5.3-5.6.8-7 1-1.4.2-5 .7-8 1-3 .4-6.6.8-8 1-1.4.2-4.5.6-7 1-2.5.3-6.3.8-8.5 1.2-2.2.3-5.1.7-6.5.8-1.4.2-4.3.5-6.5.9-2.2.3-6 .8-8.5 1.1-2.5.3-5.6.7-7 1-1.4.2-4.6.7-7.2 1-2.6.3-6.2.7-8 1-2.8.4-13.8 1.8-23.1 3.1-1.5.2-4.4.5-6.5.8-2 .3-9.3 1.3-16.2 2.1-6.9.9-13.6 1.8-15 2-1.4.2-4.7.7-7.5 1-2.7.3-6.1.8-7.5 1.1-1.4.2-4.5.7-7 .9-2.5.3-5.4.7-6.5.9-1.1.2-4.9.7-8.5 1.1-3.6.4-7.3.9-8.4 1.1-1 .2-4.4.6-7.5 1-3.1.3-6.3.8-7.2.9-.9.2-4 .6-7 1-3 .3-6.7.8-8.2 1.1-3.1.6-4 .8-13.7 1.8-3.6.4-9 1.1-12 1.6s-8 1.2-11 1.5c-3 .4-6.6.8-8 1-1.4.2-4.5.6-7 1-2.5.3-6.3.8-8.5 1.2-2.2.4-4.3.6-4.7.5-.4-.1-2.9.2-5.5.7-2.6.5-7.5 1.2-10.8 1.6-3.3.3-8.7 1-12 1.5-6.5 1-7.6 1.1-26.5 3.6-6.9.9-13.4 1.7-14.5 1.9-1.1.1-4.2.6-7 .9-2.7.4-9.9 1.4-16 2.2-6 .8-12.8 1.7-15 2-2.2.2-5.8.7-8 1-2.2.3-5.1.7-6.5.9-1.4.2-4.3.6-6.5.9-2.2.4-6 .9-8.5 1.1-6.4.7-12.1 1.5-15 2-1.4.2-5 .7-8 1.1-3 .4-9.5 1.2-14.5 1.8l-9 1.1-.1 633.3-.1 633.2 2.1.5c1.8.4 10.1 1.5 44.1 6 2.2.3 5.8.7 8 1 7.4 1 25.1 3.3 29.5 4 1.4.2 4.8.6 7.5 1 2.8.3 6.4.8 8 1.1 1.7.2 4.7.6 6.7.9 2.1.2 5.3.6 7 .9 1.8.3 5.3.8 7.8 1.1 2.5.3 14.6 1.8 27 3.5 23.8 3.2 26.8 3.6 34 4.5 2.5.3 5.6.7 7 1 1.4.2 4.8.6 7.5 1 12.3 1.5 33.2 4.3 36.5 4.9 1.4.3 4.8.7 7.5 1 2.8.3 8.2.9 12 1.5 6.5.9 9 1.3 20 2.7 2.2.2 5.1.7 6.5.9 1.4.2 4.9.7 7.9 1 3 .4 6.2.8 7.2 1 1 .2 4.2.6 7.1.9 2.9.4 6.2.8 7.3 1 1.1.2 4.7.7 8 1 6.7.8 10.2 1.3 19 2.6 3.3.5 8.3 1.2 11 1.5 4.8.5 10 1.2 15.5 2 3.2.5 25.2 3.4 30.5 4.1 2.2.2 5.1.7 6.5.9 1.4.3 4.6.7 7.2 1 2.6.3 6.3.7 8.2 1 2 .3 5.1.7 6.9.9 1.7.3 7 1 11.7 1.6 11.9 1.6 13.9 1.9 19 2.5 2.5.3 5.6.7 7 1 1.4.2 4.9.7 7.9 1 3 .4 6.2.8 7.1 1 .9.2 4.1.6 7.1.9 3 .4 7.9 1 10.9 1.4 3 .4 6.2.7 7 .7 1.3 0 1.5-4.3 1.6-32 .1-17.6.2-32.5.3-33.1.1-.7 54.6-1 181.9-.9 99.9 0 182.4-.1 183.2-.3 1.3-.3 1.5-71.3 1.3-633 0-348-.2-632.9-.2-633.2-.1-.3-82-.5-182.2-.5-100.1 0-182.6-.3-183.2-.7-.8-.5-1.1-10.5-1.2-33 0-36.2.8-33.1-8-31.8zM136.2 553.4c-.8 1-3.6 7.2-9.7 21.1-1.4 3.3-3 6.9-3.5 8-2.1 4.6-8.5 20.5-11.2 28-11.4 31.4-14.3 40.4-21.4 65.4-3 10.7-5.6 20.4-5.8 21.5-.3 1.2-1.2 5.2-2.1 9.1-1.9 7.8-2.2 9.1-3.5 15.5-.5 2.5-1.1 5.4-1.4 6.5-.7 3.3-3.5 18.8-4 22-.2 1.6-.7 4.8-1.1 7-.3 2.2-.8 6-1 8.5-.2 2.5-.7 6.1-1 8-.8 4.9-1.9 16.8-3.1 34.3-.4 6.3-.4 43.2 0 50.2.3 4.5.9 11.5 2.2 26 .5 6.4 1.5 14.2 2 16.9.2 1.2.6 4.2.9 6.8.3 2.6 1.3 8.4 2.1 13S76.5 932 77 935c1.1 6.2 1 5.5 4.4 20.5 2.1 9.4 6.7 27.7 9.6 38 5.4 19.7 18.4 57.2 28.5 82 8.5 21 16.5 38.5 17.6 38.5.4 0 12.9-5.9 27.6-13.1 14.7-7.2 27.8-13.5 29.1-14 1.2-.5 2.2-1.2 2.2-1.7s-1.8-4.8-4-9.6c-11.8-25.4-30-74.7-36-97.1-.4-1.7-1.5-5.7-2.5-9-.9-3.3-1.8-6.7-2-7.5-.2-.8-1.2-5.1-2.3-9.5-3.2-12.5-7-30.9-9.1-44-1.9-11.6-2.4-15.4-3.7-26-.3-2.8-.7-6.1-1-7.5-.7-4.3-1.8-31-1.8-43 0-13.4 1.1-33.6 2.4-44.7 1.4-12 3-23.5 3.5-26.3.3-1.4 1.4-7.7 2.6-14 3.9-21.6 10.8-49.3 18.5-73.7 8.3-26.7 27.8-76.7 34.9-89.4l1.4-2.5-20.2-9.9c-11.1-5.4-24.6-11.9-29.9-14.5-6.9-3.4-10-4.4-10.6-3.6zM1450.5 556.5c-4.9 2.5-17.9 8.7-28.7 13.9-10.9 5.3-19.8 9.8-19.8 10.2 0 .3 1.3 3.4 2.9 6.8 9.4 19.7 26.1 63.1 33.5 86.6 7.1 22.7 15.4 53.9 18.1 68.5.3 1.6.8 4.1 1.1 5.5.7 2.8.7 2.8 2.8 16 .8 5.2 1.8 11.5 2.1 14 .3 2.5.8 6.1 1 8 3.2 22 3.7 66.9 1 87.5-.2 1.6-.7 5.7-1 9-.5 5-5.5 35.9-6.9 43-4.1 20.6-14.2 57.7-21.6 79.3-6 17.7-11.9 34.5-13 36.7-.5 1.1-2.3 5.6-4 10-3.5 8.9-3.1 7.8-9.9 23.3l-5 11.2 3.2 1.4c1.8.8 7 3.2 11.7 5.4 31.3 14.8 45.3 21.2 45.6 20.9 2.1-2 20.7-47.6 28.7-70.2 6.2-17.5 18.3-56.4 19.3-61.8.2-1.7.7-3.3.9-3.7.2-.3.6-1.7.9-3.1.3-1.3 1-4.2 1.6-6.4.6-2.2 1.3-5.1 1.6-6.5.3-1.4.7-3.3 1-4.2.3-.9.7-2.5.9-3.5.2-1 1.3-6.2 2.4-11.7 2.9-13.8 6.8-36.5 8.1-46.6.5-4.7 1.2-10.1 1.4-12 .6-4.5 1.8-18.9 2.2-26 .5-8.2.4-44.8-.1-50.5-.2-2.8-.6-8.4-1-12.5-.5-7.3-.9-10.6-2.1-19.3-.3-2.3-.7-5.3-.8-6.7-.6-5.4-1.8-13-4.1-25.5-.3-1.7-1.2-6.6-2-11s-2.2-10.9-3.1-14.4c-.9-3.6-1.8-7.4-2-8.5-1.6-8.5-8.4-32.9-15.2-54.6-11.5-36.9-37.8-102.2-41.3-102.7-.8-.1-5.4 1.8-10.4 4.2zM1322.3 633.3c-16.7 6.7-30.3 12.7-30.3 13.2 0 .6 1.6 4.8 3.5 9.4 4.1 9.6 15.5 43.5 18.5 54.9 5.6 20.9 7.1 26.9 9 35.4 2.1 9.9 2.2 10.8 4.5 23.6 1.6 8.4 2 11.6 3 20.7.3 2.7.8 7.1 1.1 9.7 1.4 12.3 2 47.1 1 55.8-.3 1.9-.8 7.1-1.2 11.5-.4 4.4-.8 8.7-.9 9.5-.4 3.4-1.8 12.6-2 14-.1.8-.6 3.5-1 6s-.9 5.4-1.1 6.5c-.2 1.1-.9 4.7-1.5 8-4.5 24.9-19 74.1-29.3 98.9l-4.2 10.3 4 1.7c2.2 1 8 3.3 13 5.3 5 1.9 10 3.9 11.1 4.4 10.1 4.5 33.6 13.6 33.9 13.1.7-1.3 7.3-17.7 7.9-19.7.3-1.1 1.7-5.2 3.2-9 7.1-18.7 22.8-73.9 25.1-88.4.3-1.8.8-4.3 1-5.5 2-10.1 4.8-27.5 6-37.1.3-3.3.8-6.7.9-7.6 1.9-10.6 2.6-56.7 1.1-76.9-.4-6.3-.9-11.7-1.1-12-.1-.3-.6-3.9-.9-7.9-.4-4.1-.9-7.8-1.1-8.1-.2-.3-.6-2.8-.9-5.6-.3-2.7-.8-6.3-1.1-7.9-.3-1.7-.7-3.9-.9-5-.5-2.7-3.5-18.5-4-21-.2-1.1-1.6-6.7-3.1-12.5-1.4-5.8-2.8-11.2-3-12-4.5-20.3-27.2-88-29.5-87.9-.3 0-14.1 5.5-30.7 12.2zM239.2 633.2c-9.2 25.2-17.7 53.8-23.7 79.7-.3.9-1.1 4.3-1.9 7.7-.8 3.4-1.7 7.4-2 8.9-.3 1.6-1 5.1-1.5 7.9-.6 2.8-1.3 6.3-1.5 7.9-.3 1.5-.9 5.3-1.5 8.5-1.1 6.3-1.5 9.1-3 20.7-2.9 22.8-3.5 32.3-3.6 58 0 29.9 1 43.3 5.5 72.5 2.7 17.9 2.9 19.3 4.7 27.5 1.7 8 2.1 10.1 2.7 13.3 2.5 12.2 12.8 49.5 19 68.2 2.4 7.5 10.6 30.3 11.1 30.8.2.2 7.4-2.5 44.2-16.3l18.1-6.9-2.9-8c-12.8-34.6-24.3-77.5-29.8-111.1-4.9-29.6-5.6-38.1-5.6-69 0-21.8.7-37.6 1.9-44.1.2-1 .7-4.6 1.1-7.9.9-8.3 5.4-35.6 6-36.5.3-.4.7-2.4 1.1-4.5.5-3.1 9.6-39.8 10.7-43 .2-.6.9-3 1.6-5.5 2.1-7.4 9.6-29.9 12.9-38.7l3.1-8.1-5.7-2.2c-22-8.5-25.4-9.7-40.6-15.4-8.2-3.1-15.2-5.6-15.6-5.6-.4 0-2.6 5.1-4.8 11.2z"/></svg>